<svg width="162" height="324" viewBox="0 0 162 324" fill="none" xmlns="http://www.w3.org/2000/svg">
<g id="bldg200-upper">
<rect id="265" y="293" width="88" height="31" fill="#D9D9D9"/>
<rect id="266" x="44" y="242" width="44" height="51" fill="#D9D9D9"/>
<rect id="264" y="242" width="44" height="51" fill="#D9D9D9"/>
<path id="267" d="M0 171H48H88V242H0V171Z" fill="#D9D9D9"/>
<rect id="268" y="171" width="34" height="26" fill="#D9D9D9"/>
<rect id="270" x="34" y="171" width="28" height="26" fill="#D9D9D9"/>
<rect id="269" y="142" width="22" height="29" fill="#D9D9D9"/>
<rect id="271" y="74" width="48" height="68" fill="#D9D9D9"/>
<rect id="275" width="34" height="74" fill="#D9D9D9"/>
<rect id="274" x="34" width="54" height="28" fill="#D9D9D9"/>
<rect id="276" x="48" y="40" width="40" height="17" fill="#D9D9D9"/>
<rect id="277" x="34" y="57" width="31" height="17" fill="#D9D9D9"/>
<rect id="272" x="65" y="56" width="23" height="18" fill="#D9D9D9"/>
<rect id="278" x="31" y="28" width="17" height="29" fill="#D9D9D9"/>
<rect id="Green Room" x="22" y="142" width="26" height="29" fill="#D9D9D9"/>
<rect id="263" x="125" y="142" width="18" height="38" fill="#D9D9D9"/>
<rect id="253" x="143" y="142" width="8" height="19" fill="#D9D9D9"/>
<rect id="252" x="151" y="142" width="11" height="19" fill="#D9D9D9"/>
<rect id="251" x="143" y="161" width="19" height="19" fill="#D9D9D9"/>
<rect id="262" x="125" y="104" width="18" height="38" fill="#D9D9D9"/>
<rect id="261" x="125" y="66" width="18" height="38" fill="#D9D9D9"/>
<rect id="260" x="125" y="28" width="18" height="38" fill="#D9D9D9"/>
<path id="254" d="M143 104H162V142H143V104Z" fill="#D9D9D9"/>
<path id="255" d="M143 66H162V104H143V66Z" fill="#D9D9D9"/>
<path id="256" d="M143 28H162V66H143V28Z" fill="#D9D9D9"/>
<rect id="Restrooms" x="125" width="37" height="28" fill="#D9D9D9"/>
</g>
</svg>
