<svg width="1962" height="1364" viewBox="0 0 1962 1364" fill="none" xmlns="http://www.w3.org/2000/svg">
<rect x="1090.5" y="942.5" width="53" height="7" fill="#D4AA8F" stroke="black"/>
<rect x="1097.51" y="920.501" width="56.9988" height="8.00021" transform="rotate(-90.0122 1097.51 920.501)" fill="#D4AA8F" stroke="black"/>
<path d="M1063.63 849.5L1074.5 852.529V855.5H1017.5V849.5H1063.63Z" fill="#D4AA8F" stroke="black"/>
<rect x="574.5" y="492.5" width="57" height="8" fill="#A8C5DA" stroke="black"/>
<rect x="726.5" y="492.5" width="25" height="8" fill="#A8C5DA" stroke="black"/>
<rect x="664.5" y="492.5" width="32" height="8" fill="#A8C5DA" stroke="black"/>
<rect x="778.5" y="492.587" width="23" height="8" fill="#A8C5DA" stroke="black"/>
<rect x="811.5" y="492.587" width="23" height="8" fill="#A8C5DA" stroke="black"/>
<rect x="849.5" y="492.587" width="23" height="8" fill="#A8C5DA" stroke="black"/>
<rect x="0.499906" y="-0.500195" width="60.9142" height="7.98831" transform="matrix(-0.000188813 -1 1 -0.000389719 891.012 417.917)" fill="#A8C5DA" stroke="black"/>
<rect x="0.499906" y="-0.500195" width="47.9655" height="7.98831" transform="matrix(-0.000188813 -1 1 -0.000389719 891.009 479.469)" fill="#A8C5DA" stroke="black"/>
<rect x="963.5" y="359.5" width="43" height="8" fill="#D4C98A" stroke="black"/>
<rect x="1012.5" y="359.5" width="31" height="8" fill="#D4C98A" stroke="black"/>
<rect x="1094.5" y="838.5" width="32" height="4" fill="#D4AA8F" stroke="black"/>
<rect x="988.618" y="744.651" width="77.9524" height="5.97149" transform="rotate(90.8379 988.618 744.651)" fill="#D4AA8F" stroke="black"/>
<rect x="1169.63" y="661.502" width="75.1021" height="5.31571" transform="rotate(179.762 1169.63 661.502)" fill="#D4AA8F" stroke="black"/>
<rect x="1137.5" y="836.5" width="36" height="6" fill="#D4AA8F" stroke="black"/>
<rect x="693.5" y="923.5" width="8" height="65" fill="#D4A5A5" stroke="black"/>
<rect x="731.5" y="641.5" width="43" height="3" fill="#D4A5A5" stroke="black"/>
<rect x="780.5" y="647.5" width="3" height="28" fill="#D4A5A5" stroke="black"/>
<rect x="780.5" y="682.5" width="3" height="35" fill="#D4A5A5" stroke="black"/>
<rect x="780.5" y="726.5" width="3" height="35" fill="#D4A5A5" stroke="black"/>
<rect x="780.5" y="770.5" width="3" height="35" fill="#D4A5A5" stroke="black"/>
<rect x="780.5" y="814.5" width="3" height="35" fill="#D4A5A5" stroke="black"/>
<rect x="722.5" y="645.5" width="3" height="37" fill="#D4A5A5" stroke="black"/>
<rect x="722.5" y="692.5" width="3" height="37" fill="#D4A5A5" stroke="black"/>
<rect x="722.5" y="738.5" width="3" height="37" fill="#D4A5A5" stroke="black"/>
<rect x="722.5" y="785.5" width="3" height="37" fill="#D4A5A5" stroke="black"/>
<rect x="726.518" y="857.678" width="3" height="35" transform="rotate(-90.2868 726.518 857.678)" fill="#D4A5A5" stroke="black"/>
<rect x="769.694" y="858.875" width="3" height="12.6242" transform="rotate(-110.504 769.694 858.875)" fill="#D4A5A5" stroke="black"/>
<rect x="634.5" y="640.5" width="56" height="4" fill="#D4A5A5" stroke="black"/>
<rect x="691.5" y="647.5" width="6" height="38" fill="#D4A5A5" stroke="black"/>
<rect x="694.5" y="686.5" width="5" height="45" fill="#D4A5A5" stroke="black"/>
<rect x="648.5" y="730.5" width="45" height="5" fill="#D4A5A5" stroke="black"/>
<rect x="642.5" y="740.5" width="5" height="93" fill="#D4A5A5" stroke="black"/>
<rect x="653.5" y="837.5" width="39" height="4" fill="#D4A5A5" stroke="black"/>
<rect x="694.5" y="848.5" width="7" height="58" fill="#D4A5A5" stroke="black"/>
</svg>
