<svg width="1579" height="964" viewBox="0 0 1579 964" fill="none" xmlns="http://www.w3.org/2000/svg">
<g id="Lower 1" clip-path="url(#clip0_1_75)">
<g id="Lower">
<path id="606" d="M1132 197H1078V237H1132V197Z" fill="#C4726A" stroke="black"/>
<path id="605" d="M1077 197H1022V237H1077V197Z" fill="#C4726A" stroke="black"/>
<path id="607" d="M1132 163.513H1077.53V196.233H1132V163.513Z" fill="#C4726A" stroke="black"/>
<path id="604" d="M1076.62 163.513H1022.15V196.233H1076.62V163.513Z" fill="#C4726A" stroke="black"/>
<path id="608" d="M1132 129.885H1077.53V162.604H1132V129.885Z" fill="#C4726A" stroke="black"/>
<path id="603" d="M1076.62 129.885H1022.15V162.604H1076.62V129.885Z" fill="#C4726A" stroke="black"/>
<path id="609" d="M1132 96.2566H1077.53V128.976H1132V96.2566Z" fill="#C4726A" stroke="black"/>
<path id="602" d="M1076.62 96.2566H1022.15V128.976H1076.62V96.2566Z" fill="#C4726A" stroke="black"/>
<path id="610" d="M1132 62.6283H1077.53V95.3477H1132V62.6283Z" fill="#C4726A" stroke="black"/>
<path id="601" d="M1076.62 62.6283H1022.15V95.3477H1076.62V62.6283Z" fill="#C4726A" stroke="black"/>
<path id="611" d="M1132 29H1077.53V61.7194H1132V29Z" fill="#C4726A" stroke="black"/>
<path id="RR" d="M1050.3 29H1022.15V61.7194H1050.3V29Z" fill="#C4726A" stroke="black"/>
<path id="RR_2" d="M1076.62 29H1051.2V61.7194H1076.62V29Z" fill="#C4726A" stroke="black"/>
<path id="412" d="M698.969 153.516H667.195V199.868H698.969V153.516Z" fill="#89B8DE" stroke="black"/>
<path id="411" d="M699 201H667V231H699V201Z" fill="#89B8DE" stroke="black"/>
<path id="410" d="M699 227H667V254H699V227Z" fill="#89B8DE" stroke="black"/>
<path id="408" d="M683 250H667V292H683V250Z" fill="#89B8DE" stroke="black"/>
<path id="407" d="M666 250H634V292H666V250Z" fill="#89B8DE" stroke="black"/>
<path id="405" d="M616 250H584V292H616V250Z" fill="#89B8DE" stroke="black"/>
<path id="404" d="M583 250H550V292H583V250Z" fill="#89B8DE" stroke="black"/>
<path id="403" d="M549 250H516V292H549V250Z" fill="#89B8DE" stroke="black"/>
<path id="402" d="M516 250H483V292H516V250Z" fill="#89B8DE" stroke="black"/>
<path id="401" d="M482 250H449V292H482V250Z" fill="#89B8DE" stroke="black"/>
<path id="422" d="M528.299 199.868H450.226V248.947H528.299V199.868Z" fill="#89B8DE" stroke="black"/>
<path id="406" d="M666 200V251.183H633.649V291H617.238V251.183H529V200H597.5H666Z" fill="#89B8DE" stroke="black"/>
<path id="RR_3" d="M448 271H422V292H448V271Z" fill="#89B8DE" stroke="black"/>
<path id="421" d="M448 250H422V275H448V250Z" fill="#89B8DE" stroke="black"/>
<path id="409" d="M699 250H684V292H699V250Z" fill="#89B8DE" stroke="black"/>
<path id="413" d="M666 154H637V205H666V154Z" fill="#89B8DE" stroke="black"/>
<path id="414" d="M636 154H605V205H636V154Z" fill="#89B8DE" stroke="black"/>
<path id="415" d="M605 154H575V205H605V154Z" fill="#89B8DE" stroke="black"/>
<path id="416" d="M574 154H545V205H574V154Z" fill="#89B8DE" stroke="black"/>
<path id="417" d="M544 154H515V205H544V154Z" fill="#89B8DE" stroke="black"/>
<path id="418" d="M514 154H482V205H514V154Z" fill="#89B8DE" stroke="black"/>
<path id="419" d="M481 154H452V204H481V154Z" fill="#89B8DE" stroke="black"/>
<path id="420" d="M451 154H422V204H451V154Z" fill="#89B8DE" stroke="black"/>
<path id="504" d="M813.355 88.9855H765.24V126.249H813.355V88.9855Z" fill="#D9B830" stroke="black"/>
<path id="505" d="M862.377 88.9855H814.262V126.249H862.377V88.9855Z" fill="#D9B830" stroke="black"/>
<path id="506" d="M911.399 88.9855H863.285V126.249H911.399V88.9855Z" fill="#D9B830" stroke="black"/>
<path id="507" d="M960.422 88.9855H912.307V126.249H960.422V88.9855Z" fill="#D9B830" stroke="black"/>
<path id="503" d="M813 127H765V170H813V127Z" fill="#D9B830" stroke="black"/>
<path id="508" d="M959 127V144.851H912.328V187H903.719V144.851H853.875V170.14H823.516V151.793H814V127H959Z" fill="#D9B830" stroke="black"/>
<path id="502" d="M823 150H814V170H823V150Z" fill="#D9B830" stroke="black"/>
<path id="501" d="M905.045 144.427H854.207V182.6H905.045V144.427Z" fill="#D9B830" stroke="black"/>
<path id="509" d="M960.422 144.427H912.307V182.6H960.422V144.427Z" fill="#D9B830" stroke="black"/>
<path id="312" d="M322 632H290V717H322V632Z" fill="#C46BBC" stroke="black"/>
<path id="311" d="M289 632H256V717H289V632Z" fill="#C46BBC" stroke="black"/>
<path id="310" d="M255 632H223V718H255V632Z" fill="#C46BBC" stroke="black"/>
<path id="309" d="M222 632H191V718H222V632Z" fill="#C46BBC" stroke="black"/>
<path id="308" d="M190.589 631.583V716.818L156.092 704.046V631.583H190.589Z" fill="#C46BBC" stroke="black"/>
<path id="301" d="M243.088 871.673L210.922 857.023L175.258 931.97L207.423 946.62L243.088 871.673Z" fill="#C46BBC" stroke="black"/>
<path id="302" d="M211.366 856.601L179.2 841.952L143.535 916.898L175.701 931.548L211.366 856.601Z" fill="#C46BBC" stroke="black"/>
<path id="303" d="M179.643 841.529L148.37 827.286L112.705 902.233L143.979 916.476L179.643 841.529Z" fill="#C46BBC" stroke="black"/>
<path id="304" d="M114.11 903L82 887.894L114.563 815L147 828.705L114.11 903Z" fill="#C46BBC" stroke="black"/>
<path id="305" d="M82.153 888L50 872.855L77.3341 799L115 815.061L82.153 888Z" fill="#C46BBC" stroke="black"/>
<path id="307" d="M119.507 688.073L95.407 745.957L166.464 775.611L190.565 717.726L119.507 688.073Z" fill="#C46BBC" stroke="black"/>
<path id="306" d="M98.1952 745.278L76.3428 797.763L147.4 827.417L169.253 774.931L98.1952 745.278Z" fill="#C46BBC" stroke="black"/>
<path id="205 Kitchen" d="M501.064 425.269H427.53V483.437H501.064V425.269Z" fill="#BB7070" stroke="black"/>
<path id="204" d="M523.305 484.345V520.7H497.433V579.777H427.53V484.345H523.305Z" fill="#BB7070" stroke="black"/>
<path id="201" d="M522 687H426V779H522V687Z" fill="#BB7070" stroke="black"/>
<path id="202" d="M456.581 657.94H427.53V687.024H456.581V657.94Z" fill="#BB7070" stroke="black"/>
<path id="209" d="M521.944 657.94H490.17V687.024H521.944V657.94Z" fill="#BB7070" stroke="black"/>
<path id="210" d="M489.262 657.94H457.488V687.024H489.262V657.94Z" fill="#BB7070" stroke="black"/>
<path id="RR_4" d="M598.377 425.701H543V450.24H598.377V425.701Z" fill="#BB7070" stroke="black"/>
<path id="206" d="M543.731 425.269H501.971V483.437H543.731V425.269Z" fill="#BB7070" stroke="black"/>
<path id="203" d="M472.921 597.046H427.53V657.031H472.921V597.046Z" fill="#BB7070" stroke="black"/>
<path id="208" d="M521.944 597.046H473.829V657.031H521.944V597.046Z" fill="#BB7070" stroke="black"/>
<path id="207" d="M543.732 484.345H523.76V520.7H543.732V484.345Z" fill="#BB7070" stroke="black"/>
</g>
<g id="Lower Lockers (1) 1">
<g id="Lower Lockers">
<g id="Lower 400 Bld &#38; Island">
<path id="1517-1594" d="M526 357H497V368H526V357Z" fill="#89B8DE" stroke="black"/>
<path id="1595-1672" d="M526 372H497V382H526V372Z" fill="#89B8DE" stroke="black"/>
<path id="1261-1266 &#38; 1673-1708" d="M563 293H511V303H563V293Z" fill="#89B8DE" stroke="black"/>
<path id="1267-1341" d="M505 293H460V303H505V293Z" fill="#89B8DE" stroke="black"/>
<path id="1342-1380" d="M454 293H420V303H454V293Z" fill="#89B8DE" stroke="black"/>
<path id="1183-1260" d="M814.415 303.63L814.554 327.349L823.319 327.291L823.18 303.572L814.415 303.63Z" fill="#89B8DE" stroke="black"/>
<path id="1105-1182" d="M802.713 303.43L802.852 327.149L811.263 327.093L811.124 303.374L802.713 303.43Z" fill="#89B8DE" stroke="black"/>
<path id="1027-1104" d="M791.619 303.225L791.759 326.944L799.206 326.894L799.066 303.176L791.619 303.225Z" fill="#89B8DE" stroke="black"/>
<path id="949-1026" d="M779.926 303.229L780.065 326.948L788.075 326.894L787.936 303.176L779.926 303.229Z" fill="#89B8DE" stroke="black"/>
</g>
<g id="Lower 200 Bld">
<path id="904-993" d="M428 622H418V779H428V622Z" fill="#BB7070" stroke="black"/>
<path id="001-054" d="M554.507 413H497V424.86H554.507V413Z" fill="#BB7070" stroke="black"/>
<path id="481-492" d="M583.754 413H555V424.86H583.754V413Z" fill="#BB7070" stroke="black"/>
<path id="460-480" d="M602.551 413H584V424.86H602.551V413Z" fill="#BB7070" stroke="black"/>
</g>
<g id="Lower 400 Bld &#38; Islands">
<path id="871-948" d="M767 303.057L767.141 327.017L775.714 326.96L775.573 303L767 303.057Z" fill="#89B8DE" stroke="black"/>
<path id="727-798" d="M747 364H719V372H747V364Z" fill="#89B8DE" stroke="black"/>
<path id="799-870" d="M747 350H719V358H747V350Z" fill="#89B8DE" stroke="black"/>
<path id="295-321" d="M706.348 154H698V188.59H706.348V154Z" fill="#89B8DE" stroke="black"/>
<path id="181-237" d="M706.348 256H698V292.567H706.348V256Z" fill="#89B8DE" stroke="black"/>
<path id="238-294" d="M706.348 198H698V237.532H706.348V198Z" fill="#89B8DE" stroke="black"/>
<path id="085-135" d="M675 293H631V303H675V293Z" fill="#89B8DE" stroke="black"/>
<path id="145-180" d="M624 293H583V303H624V293Z" fill="#89B8DE" stroke="black"/>
</g>
<g id="Lower 500 Bld">
<path id="001-069" d="M763 140H755V167H763V140Z" fill="#D9B830" stroke="black"/>
<path id="070-156" d="M822.609 171H792V178.906H822.609V171Z" fill="#D9B830" stroke="black"/>
<path id="253-264" d="M853.609 171H823V178.906H853.609V171Z" fill="#D9B830" stroke="black"/>
<path id="265-306" d="M850.378 179.089L833.069 198.374L840.044 205.481L857.353 186.197L850.378 179.089Z" fill="#D9B830" stroke="black"/>
</g>
</g>
</g>
</g>
<defs>
<clipPath id="clip0_1_75">
<rect width="1579" height="964" fill="white"/>
</clipPath>
</defs>
</svg>
