<svg width="2001" height="1452" viewBox="0 0 2001 1452" fill="none" xmlns="http://www.w3.org/2000/svg">
<rect x="511.5" y="583.5" width="24" height="7" fill="#A8C5DA" stroke="black"/>
<rect x="511.5" y="594.5" width="24" height="7" fill="#A8C5DA" stroke="black"/>
<rect x="526.5" y="518.5" width="56" height="12" fill="#A8C5DA" stroke="black"/>
<rect x="471.5" y="518.5" width="48" height="11" fill="#A8C5DA" stroke="black"/>
<rect x="427.5" y="518.5" width="37" height="11" fill="#A8C5DA" stroke="black"/>
<rect x="855.844" y="552.806" width="24" height="7" transform="rotate(-90.3585 855.844 552.806)" fill="#A8C5DA" stroke="black"/>
<rect x="842.846" y="552.606" width="24" height="7" transform="rotate(-90.3585 842.846 552.606)" fill="#A8C5DA" stroke="black"/>
<rect x="829.847" y="552.405" width="24" height="7" transform="rotate(-90.3585 829.847 552.405)" fill="#A8C5DA" stroke="black"/>
<rect x="817.847" y="552.405" width="24" height="7" transform="rotate(-90.3585 817.847 552.405)" fill="#A8C5DA" stroke="black"/>
<rect x="427.5" y="856.5" width="5" height="158" fill="#D4A5A5" stroke="black"/>
<rect x="511.5" y="660.5" width="62" height="12" fill="#D4A5A5" stroke="black"/>
<rect x="582.5" y="660.5" width="31" height="12" fill="#D4A5A5" stroke="black"/>
<rect x="618.5" y="648.5" width="21" height="8" fill="#D4A5A5" stroke="black"/>
<rect x="805.847" y="552.405" width="24" height="7" transform="rotate(-90.3585 805.847 552.405)" fill="#A8C5DA" stroke="black"/>
<rect x="756.5" y="589.5" width="28" height="6" fill="#A8C5DA" stroke="black"/>
<rect x="756.5" y="576.5" width="28" height="6" fill="#A8C5DA" stroke="black"/>
<rect x="731.5" y="374.5" width="10" height="48" fill="#A8C5DA" stroke="black"/>
<rect x="731.5" y="469.5" width="12" height="47" fill="#A8C5DA" stroke="black"/>
<rect x="731.5" y="421.5" width="12" height="47" fill="#A8C5DA" stroke="black"/>
<rect x="654.5" y="520.5" width="42" height="7" fill="#A8C5DA" stroke="black"/>
<rect x="603.5" y="519.5" width="41" height="9" fill="#A8C5DA" stroke="black"/>
<rect x="792.5" y="331.5" width="10" height="48" fill="#D4C98A" stroke="black"/>
<rect x="803.5" y="386.5" width="48" height="9" fill="#D4C98A" stroke="black"/>
<rect x="858.5" y="387.5" width="33" height="8" fill="#D4C98A" stroke="black"/>
<rect x="873.707" y="448.22" width="27" height="12" transform="rotate(-46.2778 873.707 448.22)" fill="#D4C98A" stroke="black"/>
</svg>
