<svg width="1382" height="863" viewBox="0 0 1382 863" fill="none" xmlns="http://www.w3.org/2000/svg">
<g id="Upper">
<g id="bldg200-upper">
<rect id="265" x="355.718" y="675.25" width="87.5" height="30.5" fill="#D4A5A5" stroke="black" stroke-width="0.5"/>
<rect id="266" x="399.718" y="624.25" width="43.5" height="50.5" fill="#D4A5A5" stroke="black" stroke-width="0.5"/>
<rect id="264" x="355.718" y="624.25" width="43.5" height="50.5" fill="#D4A5A5" stroke="black" stroke-width="0.5"/>
<path id="267" d="M443.218 553.25V623.75H355.718V553.25H443.218Z" fill="#D4A5A5" stroke="black" stroke-width="0.5"/>
<rect id="268" x="355.718" y="553.25" width="33.5" height="25.5" fill="#D4A5A5" stroke="black" stroke-width="0.5"/>
<rect id="270" x="389.718" y="553.25" width="27.5" height="25.5" fill="#D4A5A5" stroke="black" stroke-width="0.5"/>
<rect id="269" x="355.718" y="524.25" width="21.5" height="28.5" fill="#D4A5A5" stroke="black" stroke-width="0.5"/>
<rect id="271" x="355.718" y="456.25" width="47.5" height="67.5" fill="#D4A5A5" stroke="black" stroke-width="0.5"/>
<rect id="275" x="355.718" y="382.25" width="33.5" height="73.5" fill="#D4A5A5" stroke="black" stroke-width="0.5"/>
<rect id="274" x="389.718" y="382.25" width="53.5" height="27.5" fill="#D4A5A5" stroke="black" stroke-width="0.5"/>
<rect id="276" x="403.718" y="422.25" width="39.5" height="16.5" fill="#D4A5A5" stroke="black" stroke-width="0.5"/>
<rect id="277" x="389.718" y="439.25" width="30.5" height="16.5" fill="#D4A5A5" stroke="black" stroke-width="0.5"/>
<rect id="272" x="420.718" y="438.25" width="22.5" height="17.5" fill="#D4A5A5" stroke="black" stroke-width="0.5"/>
<rect id="278" x="386.718" y="410.25" width="16.5" height="28.5" fill="#D4A5A5" stroke="black" stroke-width="0.5"/>
<rect id="Green Room" x="377.718" y="524.25" width="25.5" height="28.5" fill="#D4A5A5" stroke="black" stroke-width="0.5"/>
<rect id="263" x="480.718" y="524.25" width="17.5" height="37.5" fill="#D4A5A5" stroke="black" stroke-width="0.5"/>
<rect id="253" x="498.718" y="524.25" width="7.5" height="18.5" fill="#D4A5A5" stroke="black" stroke-width="0.5"/>
<rect id="252" x="506.718" y="524.25" width="10.5" height="18.5" fill="#D4A5A5" stroke="black" stroke-width="0.5"/>
<rect id="251" x="498.718" y="543.25" width="18.5" height="18.5" fill="#D4A5A5" stroke="black" stroke-width="0.5"/>
<rect id="262" x="480.718" y="486.25" width="17.5" height="37.5" fill="#D4A5A5" stroke="black" stroke-width="0.5"/>
<rect id="261" x="480.718" y="448.25" width="17.5" height="37.5" fill="#D4A5A5" stroke="black" stroke-width="0.5"/>
<rect id="260" x="480.718" y="410.25" width="17.5" height="37.5" fill="#D4A5A5" stroke="black" stroke-width="0.5"/>
<path id="254" d="M517.218 486.25V523.75H498.718V486.25H517.218Z" fill="#D4A5A5" stroke="black" stroke-width="0.5"/>
<path id="255" d="M517.218 448.25V485.75H498.718V448.25H517.218Z" fill="#D4A5A5" stroke="black" stroke-width="0.5"/>
<path id="256" d="M517.218 410.25V447.75H498.718V410.25H517.218Z" fill="#D4A5A5" stroke="black" stroke-width="0.5"/>
<rect id="Restrooms" x="480.718" y="382.25" width="36.5" height="27.5" fill="#D4A5A5" stroke="black" stroke-width="0.5"/>
</g>
<g id="bldg100">
<rect id="118" x="490.718" y="641.25" width="31.5" height="24.5" fill="#9DBFB0" stroke="black" stroke-width="0.5"/>
<rect id="119" x="470.718" y="654.25" width="18.5" height="11.5" fill="#9DBFB0" stroke="black" stroke-width="0.5"/>
<rect id="101" x="522.718" y="641.25" width="25.5" height="24.5" fill="#9DBFB0" stroke="black" stroke-width="0.5"/>
<rect id="105" x="548.718" y="589.25" width="25.5" height="24.5" fill="#9DBFB0" stroke="black" stroke-width="0.5"/>
<rect id="106" x="574.718" y="589.25" width="25.5" height="76.5" fill="#9DBFB0" stroke="black" stroke-width="0.5"/>
<rect id="113" x="600.718" y="646.25" width="25.5" height="16.5" fill="#9DBFB0" stroke="black" stroke-width="0.5"/>
<rect id="112" x="626.718" y="646.25" width="18.5" height="16.5" fill="#9DBFB0" stroke="black" stroke-width="0.5"/>
<rect id="111" x="645.718" y="646.25" width="22.5" height="16.5" fill="#9DBFB0" stroke="black" stroke-width="0.5"/>
<rect id="110" x="649.718" y="589.25" width="18.5" height="34.5" fill="#9DBFB0" stroke="black" stroke-width="0.5"/>
<rect id="109" x="630.718" y="589.25" width="18.5" height="34.5" fill="#9DBFB0" stroke="black" stroke-width="0.5"/>
<rect id="107" x="611.718" y="589.25" width="18.5" height="24.5" fill="#9DBFB0" stroke="black" stroke-width="0.5"/>
<rect id="108" x="611.718" y="614.25" width="18.5" height="9.5" fill="#9DBFB0" stroke="black" stroke-width="0.5"/>
<rect id="104" x="548.718" y="614.25" width="25.5" height="28.5" fill="#9DBFB0" stroke="black" stroke-width="0.5"/>
<rect id="103" x="548.718" y="643.25" width="25.5" height="22.5" fill="#9DBFB0" stroke="black" stroke-width="0.5"/>
<rect id="102" x="471.718" y="666.25" width="128.5" height="16.5" fill="#9DBFB0" stroke="black" stroke-width="0.5"/>
<rect id="114" x="569.718" y="683.25" width="30.5" height="21.5" fill="#9DBFB0" stroke="black" stroke-width="0.5"/>
<rect id="115" x="538.718" y="683.25" width="30.5" height="21.5" fill="#9DBFB0" stroke="black" stroke-width="0.5"/>
<rect id="116" x="507.718" y="683.25" width="30.5" height="21.5" fill="#9DBFB0" stroke="black" stroke-width="0.5"/>
<rect id="117" x="471.718" y="683.25" width="35.5" height="21.5" fill="#9DBFB0" stroke="black" stroke-width="0.5"/>
</g>
<g id="bldg900">
<rect id="908" x="712.718" y="561.25" width="76.5" height="54.5" fill="#D4AA8F" stroke="black" stroke-width="0.5"/>
<rect id="909" x="712.718" y="616.25" width="60.5" height="26.5" fill="#D4AA8F" stroke="black" stroke-width="0.5"/>
<rect id="910" x="712.718" y="643.25" width="70.5" height="47.5" fill="#D4AA8F" stroke="black" stroke-width="0.5"/>
<rect id="911" x="783.718" y="643.25" width="27.5" height="47.5" fill="#D4AA8F" stroke="black" stroke-width="0.5"/>
<rect id="912" x="834.718" y="643.25" width="32.5" height="47.5" fill="#D4AA8F" stroke="black" stroke-width="0.5"/>
<rect id="913" x="811.718" y="643.25" width="22.5" height="19.5" fill="#D4AA8F" stroke="black" stroke-width="0.5"/>
<rect id="914" x="811.718" y="663.25" width="22.5" height="27.5" fill="#D4AA8F" stroke="black" stroke-width="0.5"/>
<path id="901" d="M797.762 396.25L808.698 452.422L741.36 524.25H687.718V452.6L741.575 396.25H797.762Z" fill="#D4AA8F" stroke="black" stroke-width="0.5"/>
<path id="907" d="M743.218 522.25V546.75H697.579L687.718 535.903V522.25H743.218Z" fill="#D4AA8F" stroke="black" stroke-width="0.5"/>
<path id="906" d="M809.476 454.354L831.452 475.575L792.793 513.822L792.727 513.886L792.719 513.978L789.739 546.777L740.718 546.778L740.718 525.555L809.476 454.354Z" fill="#D4AA8F" stroke="black" stroke-width="0.5"/>
<path id="917" d="M865.218 480.25V532.057H823.718V546.75H789.718V480.25H865.218Z" fill="#D4AA8F" stroke="black" stroke-width="0.5"/>
<path id="905" d="M905.417 480.25V543.75H824.917V531.75H862.557V480.25H905.417Z" fill="#D4AA8F" stroke="black" stroke-width="0.5"/>
<rect id="920" x="850.718" y="440.25" width="54.5" height="39.5" fill="#D4AA8F" stroke="black" stroke-width="0.5"/>
<rect id="904" x="850.718" y="396.25" width="54.5" height="43.5" fill="#D4AA8F" stroke="black" stroke-width="0.5"/>
<path id="903" d="M850.218 396.25V482.25H834.581L796.718 439.903V396.25H850.218Z" fill="#D4AA8F" stroke="black" stroke-width="0.5"/>
</g>
<g id="bldg600-upper">
<rect id="656" opacity="0.4" x="967.718" y="159.25" width="50.5" height="37.5" fill="#C9A098" stroke="black" stroke-width="0.5"/>
<rect id="654" opacity="0.4" x="915.718" y="121.25" width="51.5" height="37.5" fill="#C9A098" stroke="black" stroke-width="0.5"/>
<rect id="653" opacity="0.4" x="915.718" y="83.25" width="51.5" height="37.5" fill="#C9A098" stroke="black" stroke-width="0.5"/>
<rect id="658" opacity="0.4" x="967.718" y="83.25" width="51.5" height="37.5" fill="#C9A098" stroke="black" stroke-width="0.5"/>
<rect id="657" opacity="0.4" x="967.718" y="121.25" width="50.5" height="37.5" fill="#C9A098" stroke="black" stroke-width="0.5"/>
<rect id="659" opacity="0.4" x="967.718" y="49.25" width="50.5" height="33.5" fill="#C9A098" stroke="black" stroke-width="0.5"/>
<rect id="652" opacity="0.4" x="915.718" y="49.25" width="51.5" height="33.5" fill="#C9A098" stroke="black" stroke-width="0.5"/>
<rect id="651" opacity="0.4" x="915.718" y="16.25" width="51.5" height="32.5" fill="#C9A098" stroke="black" stroke-width="0.5"/>
<rect id="661" opacity="0.4" x="982.718" y="0.25" width="35.5" height="15.5" fill="#C9A098" stroke="black" stroke-width="0.5"/>
<rect id="660" opacity="0.4" x="967.718" y="16.25" width="50.5" height="32.5" fill="#C9A098" stroke="black" stroke-width="0.5"/>
<rect id="655" opacity="0.4" x="915.718" y="159.25" width="51.5" height="37.5" fill="#C9A098" stroke="black" stroke-width="0.5"/>
</g>
<rect id="Aquatics center" x="1050.72" y="171.25" width="142.5" height="31.5" fill="#ABABAB" stroke="black" stroke-width="0.5"/>
<g id="bldg800">
<rect id="805" x="1023.72" y="226.25" width="74.5" height="124.5" fill="#A89BC2" stroke="black" stroke-width="0.5"/>
<rect id="808" x="1190.72" y="328.25" width="24.5" height="22.5" fill="#A89BC2" stroke="black" stroke-width="0.5"/>
<path id="809" d="M1119.22 304.25V334.75H1097.72V304.25H1119.22Z" fill="#A89BC2" stroke="black" stroke-width="0.5"/>
<rect id="810" x="1119.72" y="304.25" width="20.5" height="30.5" fill="#A89BC2" stroke="black" stroke-width="0.5"/>
<rect id="811" x="1098.72" y="273.25" width="41.5" height="30.5" fill="#A89BC2" stroke="black" stroke-width="0.5"/>
<rect id="812" x="1098.72" y="226.25" width="41.5" height="46.5" fill="#A89BC2" stroke="black" stroke-width="0.5"/>
<rect id="807" x="1140.72" y="226.25" width="74.5" height="124.5" fill="#A89BC2" stroke="black" stroke-width="0.5"/>
<rect id="806" x="1097.72" y="335.25" width="42.5" height="15.5" fill="#A89BC2" stroke="black" stroke-width="0.5"/>
<rect id="851" x="1061.72" y="386.25" width="67.5" height="35.5" fill="#A89BC2" stroke="black" stroke-width="0.5"/>
<rect id="803" x="1129.72" y="386.25" width="74.5" height="35.5" fill="#A89BC2" stroke="black" stroke-width="0.5"/>
<rect id="802" x="1102.72" y="584.25" width="54.5" height="17.5" fill="#A89BC2" stroke="black" stroke-width="0.5"/>
<rect id="801" x="1061.72" y="422.25" width="142.5" height="179.5" fill="#A89BC2" stroke="black" stroke-width="0.5"/>
</g>
<rect id="1031" x="1267.72" y="584.25" width="113.5" height="141.5" fill="#ABABAB" stroke="black" stroke-width="0.5"/>
<g id="bldg500-upper">
<rect id="556" x="823.718" y="355.25" width="31.5" height="8.5" fill="#D4C98A" stroke="black" stroke-width="0.5"/>
<rect id="558" x="823.718" y="347.25" width="17.5" height="7.5" fill="#D4C98A" stroke="black" stroke-width="0.5"/>
<rect id="574" x="823.718" y="341.25" width="17.5" height="7.5" fill="#D4C98A" stroke="black" stroke-width="0.5"/>
<rect id="573" x="841.718" y="341.25" width="13.5" height="7.5" fill="#D4C98A" stroke="black" stroke-width="0.5"/>
<rect id="557" x="841.718" y="349.25" width="13.5" height="7.5" fill="#D4C98A" stroke="black" stroke-width="0.5"/>
<rect id="555" x="781.718" y="341.25" width="41.5" height="22.5" fill="#D4C98A" stroke="black" stroke-width="0.5"/>
<rect id="571" x="781.718" y="304.25" width="22.5" height="36.5" fill="#D4C98A" stroke="black" stroke-width="0.5"/>
<rect id="559" x="804.718" y="304.25" width="50.5" height="36.5" fill="#D4C98A" stroke="black" stroke-width="0.5"/>
<rect id="560" x="804.718" y="239.25" width="55.5" height="64.5" fill="#D4C98A" stroke="black" stroke-width="0.5"/>
<rect id="561" x="804.718" y="182.25" width="55.5" height="59.5" fill="#D4C98A" stroke="black" stroke-width="0.5"/>
<rect id="562" x="803.718" y="116.25" width="51.5" height="68.5" fill="#D4C98A" stroke="black" stroke-width="0.5"/>
<rect id="563" x="804.718" y="64.25" width="50.5" height="51.5" fill="#D4C98A" stroke="black" stroke-width="0.5"/>
<rect id="564" x="759.718" y="64.25" width="44.5" height="46.5" fill="#D4C98A" stroke="black" stroke-width="0.5"/>
<path id="565" d="M759.218 64.25V110.75H715.718V64.25H759.218Z" fill="#D4C98A" stroke="black" stroke-width="0.5"/>
<rect id="566" x="674.718" y="64.25" width="40.5" height="46.5" fill="#D4C98A" stroke="black" stroke-width="0.5"/>
<rect id="567" x="674.718" y="111.25" width="40.5" height="24.5" fill="#D4C98A" stroke="black" stroke-width="0.5"/>
<rect id="568" x="715.718" y="111.25" width="40.5" height="24.5" fill="#D4C98A" stroke="black" stroke-width="0.5"/>
<rect id="570" x="775.718" y="267.25" width="28.5" height="36.5" fill="#D4C98A" stroke="black" stroke-width="0.5"/>
<rect id="551" x="756.718" y="254.25" width="32.5" height="30.5" fill="#D4C98A" stroke="black" stroke-width="0.5"/>
<rect id="577" x="756.718" y="242.25" width="15.5" height="11.5" fill="#D4C98A" stroke="black" stroke-width="0.5"/>
<rect id="576" x="772.718" y="242.25" width="16.5" height="11.5" fill="#D4C98A" stroke="black" stroke-width="0.5"/>
<path id="569" d="M804.218 111.25V268.75H787.718V242.417H754.718V111.25H804.218Z" fill="#D4C98A" stroke="black" stroke-width="0.5"/>
<rect id="550" x="756.718" y="285.25" width="18.5" height="18.5" fill="#D4C98A" stroke="black" stroke-width="0.5"/>
<path id="552" d="M781.218 304.25V354.75H728.718V304.25H781.218Z" fill="#D4C98A" stroke="black" stroke-width="0.5"/>
<rect id="554" x="754.718" y="355.25" width="26.5" height="9.5" fill="#D4C98A" stroke="black" stroke-width="0.5"/>
<rect id="553" x="729.718" y="355.25" width="24.5" height="9.5" fill="#D4C98A" stroke="black" stroke-width="0.5"/>
</g>
<g id="bldg400-upper">
<path id="463" d="M612.218 123.25V203.75H593.718V123.25H612.218Z" fill="#A8C5DA" stroke="black" stroke-width="0.5"/>
<path id="462" d="M612.218 204.25V250.75H593.718V204.25H612.218Z" fill="#A8C5DA" stroke="black" stroke-width="0.5"/>
<path id="461" d="M593.218 123.25V250.75H569.718V190.25H537.718V123.25H593.218Z" fill="#A8C5DA" stroke="black" stroke-width="0.5"/>
<rect id="460" x="547.718" y="190.25" width="21.5" height="60.5" fill="#A8C5DA" stroke="black" stroke-width="0.5"/>
<rect id="459" x="537.718" y="190.25" width="9.5" height="60.5" fill="#A8C5DA" stroke="black" stroke-width="0.5"/>
<rect id="455" x="488.718" y="186.25" width="48.5" height="16.5" fill="#A8C5DA" stroke="black" stroke-width="0.5"/>
<rect id="468" x="350.718" y="169.25" width="21.5" height="33.5" fill="#A8C5DA" stroke="black" stroke-width="0.5"/>
<rect id="457" x="476.718" y="203.25" width="60.5" height="47.5" fill="#A8C5DA" stroke="black" stroke-width="0.5"/>
<rect id="464" x="467.718" y="126.25" width="39.5" height="42.5" fill="#A8C5DA" stroke="black" stroke-width="0.5"/>
<rect id="467" x="389.718" y="126.25" width="39.5" height="42.5" fill="#A8C5DA" stroke="black" stroke-width="0.5"/>
<rect id="466" x="349.718" y="126.25" width="39.5" height="42.5" fill="#A8C5DA" stroke="black" stroke-width="0.5"/>
<rect id="465" x="427.718" y="126.25" width="39.5" height="42.5" fill="#A8C5DA" stroke="black" stroke-width="0.5"/>
<rect id="456" x="423.718" y="203.25" width="52.5" height="47.5" fill="#A8C5DA" stroke="black" stroke-width="0.5"/>
<rect id="453" x="397.718" y="203.25" width="25.5" height="21.5" fill="#A8C5DA" stroke="black" stroke-width="0.5"/>
<rect id="452" x="397.718" y="225.25" width="25.5" height="24.5" fill="#A8C5DA" stroke="black" stroke-width="0.5"/>
<rect id="451" x="348.718" y="203.25" width="48.5" height="47.5" fill="#A8C5DA" stroke="black" stroke-width="0.5"/>
</g>
<g id="bldg300-upper">
<rect id="362" x="225.718" y="573.25" width="33.5" height="76.5" fill="#C9A0BC" stroke="black" stroke-width="0.5"/>
<rect id="358" x="101.718" y="573.25" width="30.5" height="76.5" fill="#C9A0BC" stroke="black" stroke-width="0.5"/>
<rect id="352" x="121.601" y="765.334" width="34.3129" height="74.8183" transform="rotate(26 121.601 765.334)" fill="#C9A0BC" stroke="black" stroke-width="0.5"/>
<rect id="351" x="152.601" y="780.334" width="34.3129" height="74.8183" transform="rotate(26 152.601 780.334)" fill="#C9A0BC" stroke="black" stroke-width="0.5"/>
<rect id="355" x="34.496" y="719.771" width="33.3169" height="77.9288" transform="rotate(26 34.496 719.771)" fill="#C9A0BC" stroke="black" stroke-width="0.5"/>
<rect id="354" x="62.0108" y="731.443" width="34.3129" height="78.0347" transform="rotate(26 62.0108 731.443)" fill="#C9A0BC" stroke="black" stroke-width="0.5"/>
<rect id="353" x="92.5784" y="747.33" width="34.3129" height="77.0483" transform="rotate(26 92.5784 747.33)" fill="#C9A0BC" stroke="black" stroke-width="0.5"/>
<rect id="357" x="52.1063" y="668.157" width="48.3519" height="70.2724" transform="rotate(-68 52.1063 668.157)" fill="#C9A0BC" stroke="black" stroke-width="0.5"/>
<rect id="356" x="30.5476" y="721.191" width="57.0175" height="70.2724" transform="rotate(-68 30.5476 721.191)" fill="#C9A0BC" stroke="black" stroke-width="0.5"/>
<rect id="361" x="194.718" y="573.25" width="30.5" height="76.5" fill="#C9A0BC" stroke="black" stroke-width="0.5"/>
<rect id="360" x="163.718" y="573.25" width="30.5" height="76.5" fill="#C9A0BC" stroke="black" stroke-width="0.5"/>
<rect id="359" x="132.718" y="573.25" width="30.5" height="76.5" fill="#C9A0BC" stroke="black" stroke-width="0.5"/>
</g>
</g>
</svg>
