<svg width="1382" height="863" viewBox="0 0 1382 863" fill="none" xmlns="http://www.w3.org/2000/svg">
<g id="Upper">
<g id="bldg200-upper">
<rect id="265" x="355.468" y="675" width="88" height="31" fill="#D9D9D9"/>
<rect id="266" x="399.468" y="624" width="44" height="51" fill="#D9D9D9"/>
<rect id="264" x="355.468" y="624" width="44" height="51" fill="#D9D9D9"/>
<path id="267" d="M355.468 553H403.468H443.468V624H355.468V553Z" fill="#D9D9D9"/>
<rect id="268" x="355.468" y="553" width="34" height="26" fill="#D9D9D9"/>
<rect id="270" x="389.468" y="553" width="28" height="26" fill="#D9D9D9"/>
<rect id="269" x="355.468" y="524" width="22" height="29" fill="#D9D9D9"/>
<rect id="271" x="355.468" y="456" width="48" height="68" fill="#D9D9D9"/>
<rect id="275" x="355.468" y="382" width="34" height="74" fill="#D9D9D9"/>
<rect id="274" x="389.468" y="382" width="54" height="28" fill="#D9D9D9"/>
<rect id="276" x="403.468" y="422" width="40" height="17" fill="#D9D9D9"/>
<rect id="277" x="389.468" y="439" width="31" height="17" fill="#D9D9D9"/>
<rect id="272" x="420.468" y="438" width="23" height="18" fill="#D9D9D9"/>
<rect id="278" x="386.468" y="410" width="17" height="29" fill="#D9D9D9"/>
<rect id="Green Room" x="377.468" y="524" width="26" height="29" fill="#D9D9D9"/>
<rect id="263" x="480.468" y="524" width="18" height="38" fill="#D9D9D9"/>
<rect id="253" x="498.468" y="524" width="8" height="19" fill="#D9D9D9"/>
<rect id="252" x="506.468" y="524" width="11" height="19" fill="#D9D9D9"/>
<rect id="251" x="498.468" y="543" width="19" height="19" fill="#D9D9D9"/>
<rect id="262" x="480.468" y="486" width="18" height="38" fill="#D9D9D9"/>
<rect id="261" x="480.468" y="448" width="18" height="38" fill="#D9D9D9"/>
<rect id="260" x="480.468" y="410" width="18" height="38" fill="#D9D9D9"/>
<path id="254" d="M498.468 486H517.468V524H498.468V486Z" fill="#D9D9D9"/>
<path id="255" d="M498.468 448H517.468V486H498.468V448Z" fill="#D9D9D9"/>
<path id="256" d="M498.468 410H517.468V448H498.468V410Z" fill="#D9D9D9"/>
<rect id="Restrooms" x="480.468" y="382" width="37" height="28" fill="#D9D9D9"/>
</g>
<g id="bldg100">
<rect id="118" x="490.468" y="641" width="32" height="25" fill="#D9D9D9"/>
<rect id="119" x="470.468" y="654" width="19" height="12" fill="#D9D9D9"/>
<rect id="101" x="522.468" y="641" width="26" height="25" fill="#D9D9D9"/>
<rect id="105" x="548.468" y="589" width="26" height="25" fill="#D9D9D9"/>
<rect id="106" x="574.468" y="589" width="26" height="77" fill="#D9D9D9"/>
<rect id="113" x="600.468" y="646" width="26" height="17" fill="#D9D9D9"/>
<rect id="112" x="626.468" y="646" width="19" height="17" fill="#D9D9D9"/>
<rect id="111" x="645.468" y="646" width="23" height="17" fill="#D9D9D9"/>
<rect id="110" x="649.468" y="589" width="19" height="35" fill="#D9D9D9"/>
<rect id="109" x="630.468" y="589" width="19" height="35" fill="#D9D9D9"/>
<rect id="107" x="611.468" y="589" width="19" height="25" fill="#D9D9D9"/>
<rect id="108" x="611.468" y="614" width="19" height="10" fill="#D9D9D9"/>
<rect id="104" x="548.468" y="614" width="26" height="29" fill="#D9D9D9"/>
<rect id="103" x="548.468" y="643" width="26" height="23" fill="#D9D9D9"/>
<rect id="102" x="471.468" y="666" width="129" height="17" fill="#D9D9D9"/>
<rect id="114" x="569.468" y="683" width="31" height="22" fill="#D9D9D9"/>
<rect id="115" x="538.468" y="683" width="31" height="22" fill="#D9D9D9"/>
<rect id="116" x="507.468" y="683" width="31" height="22" fill="#D9D9D9"/>
<rect id="117" x="471.468" y="683" width="36" height="22" fill="#D9D9D9"/>
</g>
<g id="bldg900">
<rect id="908" x="712.468" y="561" width="77" height="55" fill="#D9D9D9"/>
<rect id="909" x="712.468" y="616" width="61" height="27" fill="#D9D9D9"/>
<rect id="910" x="712.468" y="643" width="71" height="48" fill="#D9D9D9"/>
<rect id="911" x="783.468" y="643" width="28" height="48" fill="#D9D9D9"/>
<rect id="912" x="834.468" y="643" width="33" height="48" fill="#D9D9D9"/>
<rect id="913" x="811.468" y="643" width="23" height="20" fill="#D9D9D9"/>
<rect id="914" x="811.468" y="663" width="23" height="28" fill="#D9D9D9"/>
<path id="901" d="M687.468 452.5L741.468 396H797.968L808.968 452.5L741.468 524.5H687.468V452.5Z" fill="#D9D9D9"/>
<path id="907" d="M687.468 522H743.468V547H697.468L687.468 536V522Z" fill="#D9D9D9"/>
<path id="906" d="M740.468 525.454L809.47 454L831.81 475.573L792.968 514L789.968 547.027L740.468 547.027L740.468 525.454Z" fill="#D9D9D9"/>
<path id="917" d="M789.468 480H865.468V532.307H843.468H823.968V547H789.468V480Z" fill="#D9D9D9"/>
<path id="905" d="M862.307 480H905.667V544H897.335H862.307H824.667V531.5H862.307V480Z" fill="#D9D9D9"/>
<rect id="920" x="850.468" y="440" width="55" height="40" fill="#D9D9D9"/>
<rect id="904" x="850.468" y="396" width="55" height="44" fill="#D9D9D9"/>
<path id="903" d="M796.468 396H850.468V482.5H834.468L796.468 440V396Z" fill="#D9D9D9"/>
</g>
<g id="bldg600-upper">
<rect id="656" opacity="0.4" x="967.468" y="159" width="51" height="38" fill="#D9D9D9"/>
<rect id="654" opacity="0.4" x="915.468" y="121" width="52" height="38" fill="#D9D9D9"/>
<rect id="653" opacity="0.4" x="915.468" y="83" width="52" height="38" fill="#D9D9D9"/>
<rect id="658" opacity="0.4" x="967.468" y="83" width="52" height="38" fill="#D9D9D9"/>
<rect id="657" opacity="0.4" x="967.468" y="121" width="51" height="38" fill="#D9D9D9"/>
<rect id="659" opacity="0.4" x="967.468" y="49" width="51" height="34" fill="#D9D9D9"/>
<rect id="652" opacity="0.4" x="915.468" y="49" width="52" height="34" fill="#D9D9D9"/>
<rect id="651" opacity="0.4" x="915.468" y="16" width="52" height="33" fill="#D9D9D9"/>
<rect id="661" opacity="0.4" x="982.468" width="36" height="16" fill="#D9D9D9"/>
<rect id="660" opacity="0.4" x="967.468" y="16" width="51" height="33" fill="#D9D9D9"/>
<rect id="655" opacity="0.4" x="915.468" y="159" width="52" height="38" fill="#D9D9D9"/>
</g>
<rect id="Aquatics center" x="1050.47" y="171" width="143" height="32" fill="#D9D9D9"/>
<g id="bldg800">
<rect id="805" x="1023.47" y="226" width="75" height="125" fill="#D9D9D9"/>
<rect id="808" x="1190.47" y="328" width="25" height="23" fill="#D9D9D9"/>
<path id="809" d="M1097.47 304H1119.47V335H1097.47V304Z" fill="#D9D9D9"/>
<rect id="810" x="1119.47" y="304" width="21" height="31" fill="#D9D9D9"/>
<rect id="811" x="1098.47" y="273" width="42" height="31" fill="#D9D9D9"/>
<rect id="812" x="1098.47" y="226" width="42" height="47" fill="#D9D9D9"/>
<rect id="807" x="1140.47" y="226" width="75" height="125" fill="#D9D9D9"/>
<rect id="806" x="1097.47" y="335" width="43" height="16" fill="#D9D9D9"/>
<rect id="851" x="1061.47" y="386" width="68" height="36" fill="#D9D9D9"/>
<rect id="803" x="1129.47" y="386" width="75" height="36" fill="#D9D9D9"/>
<rect id="802" x="1102.47" y="584" width="55" height="18" fill="#D9D9D9"/>
<rect id="801" x="1061.47" y="422" width="143" height="180" fill="#D9D9D9"/>
</g>
<rect id="1031" x="1267.47" y="584" width="114" height="142" fill="#D9D9D9"/>
<g id="bldg500-upper">
<rect id="556" x="823.468" y="355" width="32" height="9" fill="#D9D9D9"/>
<rect id="558" x="823.468" y="347" width="18" height="8" fill="#D9D9D9"/>
<rect id="574" x="823.468" y="341" width="18" height="8" fill="#D9D9D9"/>
<rect id="573" x="841.468" y="341" width="14" height="8" fill="#D9D9D9"/>
<rect id="557" x="841.468" y="349" width="14" height="8" fill="#D9D9D9"/>
<rect id="555" x="781.468" y="341" width="42" height="23" fill="#D9D9D9"/>
<rect id="571" x="781.468" y="304" width="23" height="37" fill="#D9D9D9"/>
<rect id="559" x="804.468" y="304" width="51" height="37" fill="#D9D9D9"/>
<rect id="560" x="804.468" y="239" width="56" height="65" fill="#D9D9D9"/>
<rect id="561" x="804.468" y="182" width="56" height="60" fill="#D9D9D9"/>
<rect id="562" x="803.468" y="116" width="52" height="69" fill="#D9D9D9"/>
<rect id="563" x="804.468" y="64" width="51" height="52" fill="#D9D9D9"/>
<rect id="564" x="759.468" y="64" width="45" height="47" fill="#D9D9D9"/>
<path id="565" d="M715.468 64H759.468V111H715.468V64Z" fill="#D9D9D9"/>
<rect id="566" x="674.468" y="64" width="41" height="47" fill="#D9D9D9"/>
<rect id="567" x="674.468" y="111" width="41" height="25" fill="#D9D9D9"/>
<rect id="568" x="715.468" y="111" width="41" height="25" fill="#D9D9D9"/>
<rect id="570" x="775.468" y="267" width="29" height="37" fill="#D9D9D9"/>
<rect id="551" x="735.468" y="254" width="54" height="31" fill="#D9D9D9"/>
<rect id="577" x="756.468" y="242" width="16" height="12" fill="#D9D9D9"/>
<rect id="576" x="772.468" y="242" width="17" height="12" fill="#D9D9D9"/>
<path id="569" d="M754.468 111H804.468V269H787.468V242.667H754.468V111Z" fill="#D9D9D9"/>
<rect id="550" x="754.468" y="267" width="21" height="37" fill="#D9D9D9"/>
<path id="552" d="M728.468 304H781.468V355H728.468V304Z" fill="#D9D9D9"/>
<rect id="554" x="754.468" y="355" width="27" height="10" fill="#D9D9D9"/>
<rect id="553" x="729.468" y="355" width="25" height="10" fill="#D9D9D9"/>
</g>
<g id="bldg400-upper">
<path id="463" d="M593.468 123H612.468V204H593.468V123Z" fill="#D9D9D9"/>
<path id="462" d="M593.468 204H612.468V251H593.468V204Z" fill="#D9D9D9"/>
<path id="461" d="M537.468 123H593.468V251H569.468V190.5H537.468V123Z" fill="#D9D9D9"/>
<rect id="460" x="547.468" y="190" width="22" height="61" fill="#D9D9D9"/>
<rect id="459" x="537.468" y="190" width="10" height="61" fill="#D9D9D9"/>
<rect id="455" x="488.468" y="186" width="49" height="17" fill="#D9D9D9"/>
<rect id="468" x="350.468" y="169" width="22" height="34" fill="#D9D9D9"/>
<rect id="457" x="476.468" y="203" width="61" height="48" fill="#D9D9D9"/>
<rect id="464" x="467.468" y="126" width="40" height="43" fill="#D9D9D9"/>
<rect id="467" x="389.468" y="126" width="40" height="43" fill="#D9D9D9"/>
<rect id="466" x="349.468" y="126" width="40" height="43" fill="#D9D9D9"/>
<rect id="465" x="427.468" y="126" width="40" height="43" fill="#D9D9D9"/>
<rect id="456" x="423.468" y="203" width="53" height="48" fill="#D9D9D9"/>
<rect id="453" x="397.468" y="203" width="26" height="22" fill="#D9D9D9"/>
<rect id="452" x="397.468" y="225" width="26" height="25" fill="#D9D9D9"/>
<rect id="451" x="348.468" y="203" width="49" height="48" fill="#D9D9D9"/>
</g>
<g id="bldg300-upper">
<rect id="362" x="225.468" y="573" width="34" height="77" fill="#D9D9D9"/>
<rect id="358" x="101.468" y="573" width="31" height="77" fill="#D9D9D9"/>
<rect id="352" x="121.486" y="765" width="34.8129" height="75.3183" transform="rotate(26 121.486 765)" fill="#D9D9D9"/>
<rect id="351" x="152.486" y="780" width="34.8129" height="75.3183" transform="rotate(26 152.486 780)" fill="#D9D9D9"/>
<rect id="355" x="34.3809" y="719.437" width="33.8169" height="78.4288" transform="rotate(26 34.3809 719.437)" fill="#D9D9D9"/>
<rect id="354" x="61.8957" y="731.109" width="34.8129" height="78.5347" transform="rotate(26 61.8957 731.109)" fill="#D9D9D9"/>
<rect id="353" x="92.4633" y="746.996" width="34.8129" height="77.5483" transform="rotate(26 92.4633 746.996)" fill="#D9D9D9"/>
<rect id="357" x="51.7809" y="668.295" width="48.8519" height="70.7724" transform="rotate(-68 51.7809 668.295)" fill="#D9D9D9"/>
<rect id="356" x="30.2222" y="721.329" width="57.5175" height="70.7724" transform="rotate(-68 30.2222 721.329)" fill="#D9D9D9"/>
<rect id="361" x="194.468" y="573" width="31" height="77" fill="#D9D9D9"/>
<rect id="360" x="163.468" y="573" width="31" height="77" fill="#D9D9D9"/>
<rect id="359" x="132.468" y="573" width="31" height="77" fill="#D9D9D9"/>
</g>
</g>
</svg>
