<svg width="1691" height="1073" viewBox="0 0 1691 1073" fill="none" xmlns="http://www.w3.org/2000/svg">
<g id="Frame 1">
<rect id="606" x="1148.5" y="220.5" width="60" height="36" fill="#C9A098" stroke="black"/>
<rect id="605" x="1087.5" y="220.5" width="60" height="36" fill="#C9A098" stroke="black"/>
<rect id="607" x="1148.5" y="183.5" width="60" height="36" fill="#C9A098" stroke="black"/>
<rect id="604" x="1087.5" y="183.5" width="60" height="36" fill="#C9A098" stroke="black"/>
<rect id="608" x="1148.5" y="146.5" width="60" height="36" fill="#C9A098" stroke="black"/>
<rect id="603" x="1087.5" y="146.5" width="60" height="36" fill="#C9A098" stroke="black"/>
<rect id="609" x="1148.5" y="109.5" width="60" height="36" fill="#C9A098" stroke="black"/>
<rect id="602" x="1087.5" y="109.5" width="60" height="36" fill="#C9A098" stroke="black"/>
<rect id="610" x="1148.5" y="72.5" width="60" height="36" fill="#C9A098" stroke="black"/>
<rect id="601" x="1087.5" y="72.5" width="60" height="36" fill="#C9A098" stroke="black"/>
<rect id="611" x="1148.5" y="35.5" width="60" height="36" fill="#C9A098" stroke="black"/>
<rect id="RR" x="1087.5" y="35.5" width="31" height="36" fill="#C9A098" stroke="black"/>
<rect id="RR_2" x="1119.5" y="35.5" width="28" height="36" fill="#C9A098" stroke="black"/>
<rect id="412" x="696.5" y="172.5" width="35" height="51" fill="#A8C5DA" stroke="black"/>
<rect id="411" x="696.5" y="224.5" width="35" height="28" fill="#A8C5DA" stroke="black"/>
<rect id="410" x="696.5" y="253.5" width="35" height="24" fill="#A8C5DA" stroke="black"/>
<rect id="408" x="696.5" y="278.5" width="17" height="41" fill="#A8C5DA" stroke="black"/>
<rect id="407" x="659.5" y="278.5" width="36" height="41" fill="#A8C5DA" stroke="black"/>
<rect id="405" x="604.5" y="278.5" width="36" height="41" fill="#A8C5DA" stroke="black"/>
<rect id="404" x="567.5" y="278.5" width="36" height="41" fill="#A8C5DA" stroke="black"/>
<rect id="403" x="530.5" y="278.5" width="36" height="41" fill="#A8C5DA" stroke="black"/>
<rect id="402" x="493.5" y="278.5" width="36" height="41" fill="#A8C5DA" stroke="black"/>
<rect id="401" x="456.5" y="278.5" width="36" height="41" fill="#A8C5DA" stroke="black"/>
<rect id="422" x="457.5" y="223.5" width="86" height="54" fill="#A8C5DA" stroke="black"/>
<path id="406" d="M695.5 224.5V277.933H659.725V319.5H641.577V277.933H544V224.5H695.5Z" fill="#A8C5DA" stroke="black"/>
<rect id="RR_3" x="426.5" y="301.5" width="29" height="18" fill="#A8C5DA" stroke="black"/>
<rect id="421" x="426.5" y="278.5" width="29" height="22" fill="#A8C5DA" stroke="black"/>
<rect id="409" x="714.5" y="278.5" width="17" height="41" fill="#A8C5DA" stroke="black"/>
<rect id="413" x="663.5" y="172.5" width="32" height="51" fill="#A8C5DA" stroke="black"/>
<rect id="414" x="628.5" y="172.5" width="34" height="51" fill="#A8C5DA" stroke="black"/>
<rect id="415" x="594.5" y="172.5" width="33" height="51" fill="#A8C5DA" stroke="black"/>
<rect id="416" x="561.5" y="172.5" width="32" height="51" fill="#A8C5DA" stroke="black"/>
<rect id="417" x="528.5" y="172.5" width="32" height="51" fill="#A8C5DA" stroke="black"/>
<rect id="418" x="492.5" y="172.5" width="35" height="51" fill="#A8C5DA" stroke="black"/>
<rect id="419" x="459.5" y="172.5" width="32" height="51" fill="#A8C5DA" stroke="black"/>
<rect id="420" x="426.5" y="172.5" width="32" height="51" fill="#A8C5DA" stroke="black"/>
<rect id="504" x="804.5" y="101.5" width="53" height="41" fill="#D4C98A" stroke="black"/>
<rect id="505" x="858.5" y="101.5" width="53" height="41" fill="#D4C98A" stroke="black"/>
<rect id="506" x="912.5" y="101.5" width="53" height="41" fill="#D4C98A" stroke="black"/>
<rect id="507" x="966.5" y="101.5" width="53" height="41" fill="#D4C98A" stroke="black"/>
<rect id="503" x="804.5" y="143.5" width="53" height="44" fill="#D4C98A" stroke="black"/>
<path id="508" d="M1018 143.5V161.5H966.5V204H957V161.5H902V187H868.5V168.5H858V143.5H1018Z" fill="#D4C98A" stroke="black"/>
<rect id="502" x="858.5" y="168.5" width="10" height="19" fill="#D4C98A" stroke="black"/>
<rect id="501" x="902.5" y="162.5" width="56" height="42" fill="#D4C98A" stroke="black"/>
<rect id="509" x="966.5" y="162.5" width="53" height="42" fill="#D4C98A" stroke="black"/>
<rect id="312" x="280.5" y="698.5" width="36" height="84" fill="#C9A0BC" stroke="black"/>
<rect id="311" x="243.5" y="698.5" width="36" height="84" fill="#C9A0BC" stroke="black"/>
<rect id="310" x="207.5" y="698.5" width="35" height="84" fill="#C9A0BC" stroke="black"/>
<rect id="309" x="172.5" y="698.5" width="34" height="84" fill="#C9A0BC" stroke="black"/>
<path id="308" d="M171.5 698.5V792.281L133.5 778.228V698.5H171.5Z" fill="#C9A0BC" stroke="black"/>
<rect id="301" x="0.240069" y="0.658432" width="38.9253" height="89.3673" transform="matrix(0.910239 0.414083 -0.430101 0.902781 193.963 945.85)" fill="#C9A0BC" stroke="black"/>
<rect id="302" x="0.240069" y="0.658432" width="38.9253" height="89.3673" transform="matrix(0.910239 0.414083 -0.430101 0.902781 159.02 929.267)" fill="#C9A0BC" stroke="black"/>
<rect id="303" x="0.240069" y="0.658432" width="37.8463" height="89.3673" transform="matrix(0.910239 0.414083 -0.430101 0.902781 125.059 913.131)" fill="#C9A0BC" stroke="black"/>
<path id="304" d="M87.038 994.036L51.608 977.918L87.5383 900.142L123.329 914.765L87.038 994.036Z" fill="#C9A0BC" stroke="black"/>
<path id="305" d="M52.0983 977.454L16.6363 961.322L46.7835 882.656L88.3257 899.763L52.0983 977.454Z" fill="#C9A0BC" stroke="black"/>
<rect id="307" x="66.6539" y="824.342" width="69" height="84.8002" transform="rotate(-67.3719 66.6539 824.342)" fill="#C9A0BC" stroke="black"/>
<rect id="306" x="45.6539" y="881.342" width="62.5638" height="84.8002" transform="rotate(-67.3719 45.6539 881.342)" fill="#C9A0BC" stroke="black"/>
<rect id="205 Kitchen" x="432.5" y="471.5" width="81" height="64" fill="#D4A5A5" stroke="black"/>
<path id="204" d="M538 536.5V576.5H509.5V641.5H432.5V536.5H538Z" fill="#D4A5A5" stroke="black"/>
<rect id="201" x="432.5" y="760.5" width="104" height="92" fill="#D4A5A5" stroke="black"/>
<rect id="202" x="432.5" y="727.5" width="32" height="32" fill="#D4A5A5" stroke="black"/>
<rect id="209" x="501.5" y="727.5" width="35" height="32" fill="#D4A5A5" stroke="black"/>
<rect id="210" x="465.5" y="727.5" width="35" height="32" fill="#D4A5A5" stroke="black"/>
<rect id="RR_4" x="585.5" y="471.5" width="61" height="27" fill="#D4A5A5" stroke="black"/>
<rect id="206" x="514.5" y="471.5" width="46" height="64" fill="#D4A5A5" stroke="black"/>
<rect id="203" x="432.5" y="660.5" width="50" height="66" fill="#D4A5A5" stroke="black"/>
<rect id="208" x="483.5" y="660.5" width="53" height="66" fill="#D4A5A5" stroke="black"/>
<rect id="207" x="538.5" y="536.5" width="22" height="40" fill="#D4A5A5" stroke="black"/>
</g>
</svg>
